<?xml version="1.0" encoding="UTF-8" standalone="no"?>
<!-- Created with Inkscape (http://www.inkscape.org/) -->

<svg
   xmlns:dc="http://purl.org/dc/elements/1.1/"
   xmlns:cc="http://creativecommons.org/ns#"
   xmlns:rdf="http://www.w3.org/1999/02/22-rdf-syntax-ns#"
   xmlns:svg="http://www.w3.org/2000/svg"
   xmlns="http://www.w3.org/2000/svg"
   xmlns:sodipodi="http://sodipodi.sourceforge.net/DTD/sodipodi-0.dtd"
   xmlns:inkscape="http://www.inkscape.org/namespaces/inkscape"
   version="1.1"
   id="svg10"
   xml:space="preserve"
   width="200"
   height="200"
   viewBox="0 0 90.048004 90"
   sodipodi:docname="eye-in-triangle.svg"
   inkscape:version="0.92.2 (5c3e80d, 2017-08-06)"><metadata
     id="metadata16"><rdf:RDF><cc:Work
         rdf:about=""><dc:format>image/svg+xml</dc:format><dc:type
           rdf:resource="http://purl.org/dc/dcmitype/StillImage" /><dc:title></dc:title></cc:Work></rdf:RDF></metadata><defs
     id="defs14" /><sodipodi:namedview
     pagecolor="#ffffff"
     bordercolor="#666666"
     borderopacity="1"
     objecttolerance="10"
     gridtolerance="10"
     guidetolerance="10"
     inkscape:pageopacity="0"
     inkscape:pageshadow="2"
     inkscape:window-width="1920"
     inkscape:window-height="1017"
     id="namedview12"
     showgrid="false"
     inkscape:zoom="4.2756303"
     inkscape:cx="29.474942"
     inkscape:cy="43.448486"
     inkscape:window-x="-8"
     inkscape:window-y="-8"
     inkscape:window-maximized="1"
     inkscape:current-layer="text42"
     fit-margin-top="0"
     fit-margin-left="0"
     fit-margin-right="0"
     fit-margin-bottom="0" /><g
     id="g18"
     inkscape:groupmode="layer"
     inkscape:label="equinox3_1"
     transform="matrix(1.3333333,0,0,-1.3333333,-234.79999,621.62078)"><g
       aria-label="{ "
       transform="matrix(1,0,0,-1,176.1,398.7156)"
       style="font-variant:normal;font-weight:normal;font-stretch:normal;font-size:72px;font-family:'NI Illuminati';-inkscape-font-specification:NIIlluminati;writing-mode:lr-tb;fill:#000000;fill-opacity:1;fill-rule:nonzero;stroke:none"
       id="text42"><path
         d="m 67.5,-33.1875 q 0,0.878906 -0.703125,0.84375 l -16.347656,-0.703125 0.457031,0.808594 15.785156,1.371094 q 0.667969,0.246093 0.597656,0.949218 -0.140625,1.371094 -0.140625,1.125 -0.140625,0.773438 -0.84375,0.773438 l -14.414062,-2.566406 2.496094,4.359375 10.441406,3.796875 q 0.667969,0.246093 0.316406,1.054687 -0.140625,0.351563 -0.421875,1.054688 -0.351562,0.808593 -0.984375,0.527343 l -7.699219,-3.585937 1.019532,1.792969 6.011718,3.09375 q 0.351563,0.246093 0.351563,0.632812 0,0.210938 -0.140625,0.457031 -0.140625,0.210938 -0.597656,1.019532 -0.351563,0.632812 -1.054688,0.386718 L 56.742187,-19.125 h -2.144531 l 6.222656,4.359375 q 0.597657,0.421875 0.07031,1.089844 -0.28125,0.351562 -0.703125,0.949218 -0.351563,0.421875 -0.667969,0.421875 -0.210937,0 -0.421875,-0.210937 L 51.1875,-19.125 h -5.167969 l 8.964844,10.7226562 q 0.492187,0.5625001 -0.210938,1.0898438 -0.246093,0.1757813 -0.949218,0.703125 -0.597657,0.4570313 -1.089844,-0.070312 L 44.015625,-19.125 h -0.949219 l 8.4375,13.2539063 q 0.386719,0.6328125 -0.386719,1.0546875 -0.210937,0.140625 -0.984375,0.5976562 -0.878906,0.4921875 -1.089843,-0.2109375 L 41.378906,-19.125 h -0.808594 l 7.136719,15.328125 q 0.210938,0.7382812 -0.492187,1.0195312 -0.351563,0.140625 -1.089844,0.421875 -0.808594,0.3515625 -1.054688,-0.3515625 L 39.09375,-19.125 h -2.777344 l 3.164063,17.9296875 q 0,0.66796875 -0.667969,0.80859375 -0.632813,0.10546875 -1.230469,0.17578125 -0.914062,0.140625 -0.914062,-0.59765625 L 35.050781,-19.125 H 34.382812 L 35.15625,-0.73828125 Q 35.191406,0 34.3125,0 h -1.125 q -0.878906,0 -0.878906,-0.52734375 0,-0.10546875 0.03516,-0.2109375 L 33.117187,-19.125 h -0.667968 l -1.617188,18.31640625 q 0,0.73828125 -0.914062,0.59765625 -0.597657,-0.0703125 -1.265625,-0.17578125 -0.632813,-0.140625 -0.632813,-0.80859375 L 31.183594,-19.125 H 28.441406 L 22.429687,-2.7070313 Q 22.183594,-2.0390625 21.375,-2.3554688 L 20.847656,-2.5664063 20.320312,-2.7773438 Q 19.546875,-3.09375 19.792969,-3.796875 L 26.964844,-19.125 h -0.84375 l -7.664063,14.6953125 q -0.246094,0.703125 -1.089844,0.2109375 -0.351562,-0.1757812 -0.984375,-0.5976562 -0.457031,-0.2109375 -0.457031,-0.6679688 0,-0.1757812 0.07031,-0.3867187 L 24.46875,-19.125 h -0.984375 l -8.71875,12.4453125 q -0.527344,0.5273438 -1.089844,0.070312 -0.105468,-0.1054687 -0.949218,-0.703125 -0.703125,-0.5273437 -0.210938,-1.0898438 l 9,-10.7226562 H 16.3125 l -7.9101562,6.609375 Q 7.875,-11.988281 7.3125,-12.726563 7.1367187,-13.007813 6.609375,-13.675781 6.0820312,-14.34375 6.6796875,-14.765625 L 12.902344,-19.125 h -2.144531 l -4.8867193,3.128906 q -0.2109375,0.07031 -0.3867187,0.07031 -0.4570313,0 -0.6679688,-0.457031 -0.035156,-0.07031 -0.5976562,-0.984375 -0.421875,-0.703125 0.2109375,-1.125 l 6.0117185,-3.09375 1.019532,-1.792969 -7.664063,3.585937 Q 3.09375,-19.546875 2.7773438,-20.320312 L 2.5664063,-20.847656 2.3554688,-21.375 q -0.3164063,-0.808594 0.3515625,-1.054687 l 10.4062497,-3.796875 2.53125,-4.359375 -14.4492185,2.566406 q -0.703125,0 -0.9140625,-1.300781 -0.0703125,-0.28125 -0.0703125,-0.597657 -0.10546875,-0.703125 0.59765625,-0.949218 L 16.59375,-32.238281 17.050781,-33.046875 0.703125,-32.34375 Q 0,-32.308594 0,-33.1875 v -1.160156 q 0,-0.878906 0.703125,-0.84375 l 17.15625,0.738281 0.421875,-0.667969 -17.47265625,-1.546875 q -0.73828125,0 -0.59765625,-0.914062 0,-0.140625 0.140625,-1.125 0.140625,-0.984375 0.84375,-0.773438 l 17.7890625,3.128907 1.335937,-2.320313 -17.6132807,-6.398437 q -0.703125,-0.246094 -0.3515625,-1.054688 0.140625,-0.351562 0.421875,-1.054687 0.28125,-0.738282 1.0195312,-0.527344 l 17.121094,7.980469 0.316406,-0.5625 -16.8046875,-8.753907 q -0.703125,-0.210937 -0.2109375,-1.089843 0.2109375,-0.351563 0.5976562,-0.984375 0.421875,-0.773438 1.0546875,-0.386719 L 21.867187,-41.34375 22.183594,-41.871094 6.6796875,-52.734375 q -0.5976563,-0.421875 -0.070312,-1.089844 0.28125,-0.386718 0.703125,-0.949218 0.5273437,-0.703125 1.0898438,-0.210938 l 14.3789062,12.058594 1.335937,-2.320313 -11.601562,-13.851562 q -0.210937,-0.210938 -0.210937,-0.421875 0,-0.316406 0.421875,-0.667969 0.351562,-0.246094 0.949218,-0.703125 0.667969,-0.527344 1.089844,0.07031 l 10.089844,14.34375 0.386718,-0.667969 -9.246093,-14.519531 q -0.386719,-0.597657 0.386718,-1.019532 0.351563,-0.175781 0.984375,-0.597656 0.351563,-0.175781 0.597657,-0.175781 0.351562,0 0.492187,0.386719 l 7.59375,14.519531 0.457031,-0.773438 -6.714843,-14.414062 q -0.246094,-0.527344 0.421875,-0.949219 0.597656,-0.246094 1.160156,-0.492187 0.808594,-0.316407 1.054687,0.351562 l 5.027344,13.816406 2.496094,-4.324218 -1.933594,-10.96875 q 0,-0.738282 0.738281,-0.84375 -0.07031,0 1.160157,-0.140625 0.914062,-0.105469 0.914062,0.597656 l 0.773438,8.542969 1.019531,-1.792969 -0.28125,-6.855469 q -0.03516,-0.140625 -0.03516,-0.246094 0,-0.457031 0.878906,-0.457031 h 1.125 q 0.878906,0 0.84375,0.703125 l -0.28125,6.855469 1.019531,1.792969 0.773438,-8.542969 q 0,-0.703125 0.914062,-0.597656 1.195313,0.140625 1.160156,0.140625 0.738282,0.105468 0.738282,0.84375 l -1.933594,10.96875 2.496094,4.324218 5.027343,-13.816406 q 0.246094,-0.667969 1.054688,-0.351562 0.246094,0.105468 1.089844,0.457031 0.703125,0.316406 0.492187,0.984375 l -6.714844,14.414062 0.457032,0.773438 7.59375,-14.519531 q 0.140625,-0.386719 0.492187,-0.386719 0.246094,0 0.597656,0.175781 0.07031,0.03516 0.949219,0.597656 0.914063,0.527344 0.421875,1.019532 l -9.246094,14.519531 0.421875,0.667969 10.054688,-14.34375 q 0.421875,-0.597657 1.089844,-0.07031 0.738281,0.5625 0.949218,0.703125 0.421875,0.351563 0.421875,0.667969 0,0.210937 -0.210937,0.421875 l -11.601563,13.851562 1.335938,2.320313 14.378906,-12.058594 q 0.210938,-0.210937 0.421875,-0.210937 0.316406,0 0.667969,0.421875 0.140625,0.210937 0.703125,0.949218 0.527344,0.667969 -0.07031,1.089844 l -15.503906,10.863281 0.316406,0.527344 15.996094,-10.160156 q 0.632813,-0.421875 1.335938,0.878906 0.140625,0.28125 0.316406,0.492188 0.175781,0.351562 0.175781,0.597656 0,0.351562 -0.386719,0.492187 l -16.804687,8.753907 0.316406,0.5625 17.15625,-7.980469 q 0.667969,-0.210938 0.984375,0.492187 0.140625,0.351563 0.421875,1.089844 0.351563,0.808594 -0.316406,1.054688 l -17.648438,6.398437 1.335938,2.320313 17.789062,-3.128907 q 0.105469,-0.03516 0.210938,-0.03516 0.492187,0 0.632812,0.773438 0,-0.03516 0.140625,1.160156 0.105469,0.914062 -0.597656,0.914062 l -17.4375,1.546875 0.386719,0.667969 17.15625,-0.738281 Q 67.5,-35.226562 67.5,-34.347656 Z M 56.25,-20.144531 54.738281,-22.816406 33.75,-59.625 11.214844,-20.144531 Z m -1.054688,-0.527344 H 12.304688 L 33.75,-58.5 Z m -18.84375,-11.636719 q 0.527344,-1.195312 -0.386718,-3.023437 -0.667969,-1.371094 -2.179688,-1.371094 -0.527344,0 -1.160156,0.175781 -0.105469,0.03516 -0.07031,0.140625 0,0.140625 0.105469,0.140625 0.773438,0.140625 1.371094,0.84375 0.773437,0.949219 0.210937,1.546875 -0.703125,0.738282 -2.039062,0.140625 -0.386719,-0.175781 -0.527344,-0.773437 -0.140625,-0.492188 -0.246094,-0.984375 -0.527343,0.949219 -0.527343,1.722656 0,1.863281 2.425781,2.496094 2.320312,0.597656 3.023437,-1.054688 z m 9.035157,4.289063 q -0.03516,-1.652344 -2.707032,-5.800781 -0.210937,-0.316407 -0.5625,0.07031 -0.175781,0.140625 -0.175781,0.386719 0,0.386719 0.386719,1.019531 -5.378906,2.460938 -9.492188,2.390625 -4.078125,-0.03516 -9.246093,-2.882812 -0.84375,-0.457032 -0.175782,-1.019532 3.65625,-2.988281 8.613282,-3.726562 1.089843,-0.175781 2.144531,-0.175781 3.726562,0 7.03125,2.074218 0.03516,-0.175781 0.03516,-0.351562 0,-0.984375 -1.371094,-1.722656 0.5625,-0.386719 1.089844,-0.984375 l 1.335938,0.773437 q 0.667968,0.386719 1.40625,0.773438 0.03516,-0.703125 -0.421875,-1.335938 -0.738282,-0.878906 -2.566407,-2.214844 -2.671875,-1.160156 -8.648437,-1.195312 -5.941406,-0.03516 -7.734375,2.53125 0.738281,0.07031 1.546875,0.07031 2.917969,0 6.503906,-0.914062 1.546875,-0.386719 2.917969,-0.386719 2.671875,0 4.710937,1.511719 -0.386718,0.949219 -0.949218,1.195312 -2.917969,-0.386718 -5.378907,-0.386718 -1.617187,0 -2.988281,0.140625 -3.65625,0.421875 -7.523437,3.480468 -1.019532,0.808594 -1.019532,1.476563 0,0.597656 0.878907,1.089844 l 2.566406,1.371093 q 0.878906,0.492188 3.972656,1.546875 1.441406,0.492188 3.234375,0.386719 1.511719,-0.07031 3.480469,-0.316406 4.710937,-0.632813 6.328125,-2.53125 1.054687,1.757812 1.054687,6.714844 1.757813,-1.230469 1.722657,-3.058594 z m -6.46875,-0.28125 q -8.050782,4.921875 -12.234375,4.921875 -2.917969,0 -6.117188,-1.652344 -0.84375,-0.457031 -0.949219,-1.125 -0.105468,-0.703125 0.492188,-0.984375 1.722656,-0.808594 3.550781,0.175781 0.175781,0.140625 0.175781,-0.03516 0,-0.175781 -0.07031,-0.386719 -0.457031,-1.40625 -2.882813,-1.40625 -1.40625,0 -2.355468,1.195313 Q 18,-26.894531 18,-26.296875 q 0,0.703125 0.667969,1.300781 2.355468,2.109375 5.414062,2.53125 9.5625,1.335938 14.835938,-5.835937 z"
         style="font-style:normal;font-variant:normal;font-weight:normal;font-stretch:normal;font-family:'OFDLEL+NIIlluminati';-inkscape-font-specification:'OFDLEL+NIIlluminati'"
         id="path9" /></g></g></svg>
