# Blender 4.0.2
# www.blender.org
mtllib shoes.mtl
o shoes.001
v 0.341854 -0.328211 -0.471050
v 0.332803 -0.289933 -0.471050
v 0.385416 -0.317910 -0.468924
v 0.376365 -0.279632 -0.468924
v 0.427304 -0.308005 -0.462628
v 0.418253 -0.269727 -0.462628
v 0.465908 -0.298877 -0.452404
v 0.456857 -0.260599 -0.452404
v 0.499745 -0.290876 -0.438645
v 0.490694 -0.252598 -0.438645
v 0.527514 -0.284310 -0.421879
v 0.518463 -0.246032 -0.421879
v 0.548149 -0.279431 -0.402752
v 0.539097 -0.241152 -0.402752
v 0.560855 -0.276426 -0.381997
v 0.551804 -0.238148 -0.381997
v 0.565146 -0.275411 -0.360413
v 0.556094 -0.237133 -0.360413
v 0.560855 -0.276426 -0.338828
v 0.551804 -0.238148 -0.338828
v 0.548149 -0.279431 -0.318074
v 0.539097 -0.241152 -0.318074
v 0.527514 -0.284310 -0.298946
v 0.518463 -0.246032 -0.298946
v 0.499745 -0.290876 -0.282180
v 0.490694 -0.252598 -0.282180
v 0.465908 -0.298877 -0.268421
v 0.456857 -0.260599 -0.268421
v 0.427304 -0.308005 -0.258197
v 0.418253 -0.269727 -0.258197
v 0.385416 -0.317910 -0.251901
v 0.376365 -0.279632 -0.251901
v 0.341854 -0.328211 -0.249775
v 0.332803 -0.289933 -0.249775
v 0.298292 -0.338511 -0.251901
v 0.289241 -0.300233 -0.251901
v 0.256404 -0.348416 -0.258197
v 0.247353 -0.310138 -0.258197
v 0.217800 -0.357545 -0.268421
v 0.208749 -0.319266 -0.268421
v 0.183964 -0.365546 -0.282180
v 0.174912 -0.327267 -0.282180
v 0.156194 -0.372112 -0.298946
v 0.147143 -0.333834 -0.298946
v 0.135560 -0.376991 -0.318074
v 0.126509 -0.338713 -0.318074
v 0.122854 -0.379996 -0.338828
v 0.113802 -0.341718 -0.338828
v 0.118563 -0.381010 -0.360413
v 0.109512 -0.342732 -0.360413
v 0.122854 -0.379996 -0.381997
v 0.113802 -0.341718 -0.381997
v 0.135560 -0.376991 -0.402752
v 0.126509 -0.338713 -0.402752
v 0.156194 -0.372112 -0.421879
v 0.147143 -0.333834 -0.421879
v 0.183964 -0.365546 -0.438645
v 0.174912 -0.327267 -0.438645
v 0.217800 -0.357545 -0.452404
v 0.208749 -0.319266 -0.452404
v 0.256404 -0.348416 -0.462628
v 0.247353 -0.310138 -0.462628
v 0.298292 -0.338511 -0.468924
v 0.289241 -0.300233 -0.468924
v 0.341854 -0.328211 -0.110637
v 0.332803 -0.289933 -0.110637
v 0.385416 -0.317910 -0.108511
v 0.376365 -0.279632 -0.108511
v 0.427304 -0.308005 -0.102216
v 0.418253 -0.269727 -0.102216
v 0.465908 -0.298877 -0.091992
v 0.456857 -0.260599 -0.091992
v 0.499745 -0.290876 -0.078232
v 0.490694 -0.252598 -0.078232
v 0.527514 -0.284310 -0.061467
v 0.518463 -0.246031 -0.061467
v 0.548149 -0.279430 -0.042339
v 0.539097 -0.241152 -0.042339
v 0.560855 -0.276426 -0.021584
v 0.551804 -0.238148 -0.021584
v 0.565146 -0.275411 0.000000
v 0.556094 -0.237133 0.000000
v 0.560855 -0.276426 0.021584
v 0.551804 -0.238148 0.021584
v 0.548149 -0.279430 0.042339
v 0.539097 -0.241152 0.042339
v 0.527514 -0.284310 0.061467
v 0.518463 -0.246031 0.061467
v 0.499745 -0.290876 0.078232
v 0.490694 -0.252598 0.078232
v 0.465908 -0.298877 0.091992
v 0.456857 -0.260599 0.091992
v 0.427304 -0.308005 0.102216
v 0.418253 -0.269727 0.102216
v 0.385416 -0.317910 0.108511
v 0.376365 -0.279632 0.108511
v 0.341854 -0.328211 0.110637
v 0.332803 -0.289933 0.110637
v 0.298292 -0.338511 0.108511
v 0.289241 -0.300233 0.108511
v 0.256404 -0.348416 0.102216
v 0.247353 -0.310138 0.102216
v 0.217800 -0.357545 0.091992
v 0.208749 -0.319266 0.091992
v 0.183964 -0.365546 0.078232
v 0.174912 -0.327267 0.078232
v 0.156194 -0.372112 0.061467
v 0.147143 -0.333834 0.061467
v 0.135560 -0.376991 0.042339
v 0.126509 -0.338713 0.042339
v 0.122854 -0.379996 0.021584
v 0.113802 -0.341717 0.021584
v 0.118563 -0.381010 0.000000
v 0.109512 -0.342732 0.000000
v 0.122854 -0.379996 -0.021584
v 0.113802 -0.341717 -0.021584
v 0.135560 -0.376991 -0.042339
v 0.126509 -0.338713 -0.042339
v 0.156194 -0.372112 -0.061467
v 0.147143 -0.333834 -0.061467
v 0.183964 -0.365546 -0.078232
v 0.174912 -0.327267 -0.078232
v 0.217800 -0.357545 -0.091992
v 0.208749 -0.319266 -0.091992
v 0.256404 -0.348416 -0.102216
v 0.247353 -0.310138 -0.102216
v 0.298292 -0.338511 -0.108511
v 0.289241 -0.300233 -0.108511
vn 0.0462 0.0109 -0.9989
vn 0.1408 0.0333 -0.9895
vn 0.2429 0.0574 -0.9684
vn 0.3581 0.0847 -0.9298
vn 0.4930 0.1166 -0.8622
vn 0.6519 0.1541 -0.7425
vn 0.8237 0.1948 -0.5325
vn 0.9535 0.2255 -0.2001
vn 0.9535 0.2255 0.2001
vn 0.8237 0.1948 0.5325
vn 0.6519 0.1541 0.7425
vn 0.4930 0.1166 0.8622
vn 0.3581 0.0847 0.9298
vn 0.2429 0.0574 0.9684
vn 0.1408 0.0333 0.9895
vn 0.0462 0.0109 0.9989
vn -0.0462 -0.0109 0.9989
vn -0.1408 -0.0333 0.9895
vn -0.2429 -0.0574 0.9684
vn -0.3581 -0.0847 0.9298
vn -0.4930 -0.1166 0.8622
vn -0.6519 -0.1541 0.7425
vn -0.8237 -0.1948 0.5325
vn -0.9535 -0.2255 0.2001
vn -0.9535 -0.2255 -0.2001
vn -0.8237 -0.1948 -0.5325
vn -0.6519 -0.1541 -0.7425
vn -0.4930 -0.1166 -0.8622
vn -0.3581 -0.0847 -0.9298
vn -0.2429 -0.0574 -0.9684
vn -0.2301 0.9732 -0.0000
vn -0.1408 -0.0333 -0.9895
vn -0.0462 -0.0109 -0.9989
vn 0.2301 -0.9732 -0.0000
vt 1.000000 0.500000
vt 1.000000 1.000000
vt 0.968750 1.000000
vt 0.968750 0.500000
vt 0.937500 1.000000
vt 0.937500 0.500000
vt 0.906250 1.000000
vt 0.906250 0.500000
vt 0.875000 1.000000
vt 0.875000 0.500000
vt 0.843750 1.000000
vt 0.843750 0.500000
vt 0.812500 1.000000
vt 0.812500 0.500000
vt 0.781250 1.000000
vt 0.781250 0.500000
vt 0.750000 1.000000
vt 0.750000 0.500000
vt 0.718750 1.000000
vt 0.718750 0.500000
vt 0.687500 1.000000
vt 0.687500 0.500000
vt 0.656250 1.000000
vt 0.656250 0.500000
vt 0.625000 1.000000
vt 0.625000 0.500000
vt 0.593750 1.000000
vt 0.593750 0.500000
vt 0.562500 1.000000
vt 0.562500 0.500000
vt 0.531250 1.000000
vt 0.531250 0.500000
vt 0.500000 1.000000
vt 0.500000 0.500000
vt 0.468750 1.000000
vt 0.468750 0.500000
vt 0.437500 1.000000
vt 0.437500 0.500000
vt 0.406250 1.000000
vt 0.406250 0.500000
vt 0.375000 1.000000
vt 0.375000 0.500000
vt 0.343750 1.000000
vt 0.343750 0.500000
vt 0.312500 1.000000
vt 0.312500 0.500000
vt 0.281250 1.000000
vt 0.281250 0.500000
vt 0.250000 1.000000
vt 0.250000 0.500000
vt 0.218750 1.000000
vt 0.218750 0.500000
vt 0.187500 1.000000
vt 0.187500 0.500000
vt 0.156250 1.000000
vt 0.156250 0.500000
vt 0.125000 1.000000
vt 0.125000 0.500000
vt 0.093750 1.000000
vt 0.093750 0.500000
vt 0.062500 1.000000
vt 0.062500 0.500000
vt 0.296822 0.485388
vt 0.250000 0.490000
vt 0.203178 0.485388
vt 0.158156 0.471731
vt 0.116663 0.449553
vt 0.080294 0.419706
vt 0.050447 0.383337
vt 0.028269 0.341844
vt 0.014612 0.296822
vt 0.010000 0.250000
vt 0.014612 0.203178
vt 0.028269 0.158156
vt 0.050447 0.116663
vt 0.080294 0.080294
vt 0.116663 0.050447
vt 0.158156 0.028269
vt 0.203178 0.014612
vt 0.250000 0.010000
vt 0.296822 0.014612
vt 0.341844 0.028269
vt 0.383337 0.050447
vt 0.419706 0.080294
vt 0.449553 0.116663
vt 0.471731 0.158156
vt 0.485388 0.203178
vt 0.490000 0.250000
vt 0.485388 0.296822
vt 0.471731 0.341844
vt 0.449553 0.383337
vt 0.419706 0.419706
vt 0.383337 0.449553
vt 0.341844 0.471731
vt 0.031250 1.000000
vt 0.031250 0.500000
vt 0.000000 1.000000
vt 0.000000 0.500000
vt 0.750000 0.490000
vt 0.796822 0.485388
vt 0.841844 0.471731
vt 0.883337 0.449553
vt 0.919706 0.419706
vt 0.949553 0.383337
vt 0.971731 0.341844
vt 0.985388 0.296822
vt 0.990000 0.250000
vt 0.985388 0.203178
vt 0.971731 0.158156
vt 0.949553 0.116663
vt 0.919706 0.080294
vt 0.883337 0.050447
vt 0.841844 0.028269
vt 0.796822 0.014612
vt 0.750000 0.010000
vt 0.703178 0.014612
vt 0.658156 0.028269
vt 0.616663 0.050447
vt 0.580294 0.080294
vt 0.550447 0.116663
vt 0.528269 0.158156
vt 0.514612 0.203178
vt 0.510000 0.250000
vt 0.514612 0.296822
vt 0.528269 0.341844
vt 0.550447 0.383337
vt 0.580294 0.419706
vt 0.616663 0.449553
vt 0.658156 0.471731
vt 0.703178 0.485388
s 0
f 1/1/1 2/2/1 4/3/1 3/4/1
f 3/4/2 4/3/2 6/5/2 5/6/2
f 5/6/3 6/5/3 8/7/3 7/8/3
f 7/8/4 8/7/4 10/9/4 9/10/4
f 9/10/5 10/9/5 12/11/5 11/12/5
f 11/12/6 12/11/6 14/13/6 13/14/6
f 13/14/7 14/13/7 16/15/7 15/16/7
f 15/16/8 16/15/8 18/17/8 17/18/8
f 17/18/9 18/17/9 20/19/9 19/20/9
f 19/20/10 20/19/10 22/21/10 21/22/10
f 21/22/11 22/21/11 24/23/11 23/24/11
f 23/24/12 24/23/12 26/25/12 25/26/12
f 25/26/13 26/25/13 28/27/13 27/28/13
f 27/28/14 28/27/14 30/29/14 29/30/14
f 29/30/15 30/29/15 32/31/15 31/32/15
f 31/32/16 32/31/16 34/33/16 33/34/16
f 33/34/17 34/33/17 36/35/17 35/36/17
f 35/36/18 36/35/18 38/37/18 37/38/18
f 37/38/19 38/37/19 40/39/19 39/40/19
f 39/40/20 40/39/20 42/41/20 41/42/20
f 41/42/21 42/41/21 44/43/21 43/44/21
f 43/44/22 44/43/22 46/45/22 45/46/22
f 45/46/23 46/45/23 48/47/23 47/48/23
f 47/48/24 48/47/24 50/49/24 49/50/24
f 49/50/25 50/49/25 52/51/25 51/52/25
f 51/52/26 52/51/26 54/53/26 53/54/26
f 53/54/27 54/53/27 56/55/27 55/56/27
f 55/56/28 56/55/28 58/57/28 57/58/28
f 57/58/29 58/57/29 60/59/29 59/60/29
f 59/60/30 60/59/30 62/61/30 61/62/30
f 4/63/31 2/64/31 64/65/31 62/66/31 60/67/31 58/68/31 56/69/31 54/70/31 52/71/31 50/72/31 48/73/31 46/74/31 44/75/31 42/76/31 40/77/31 38/78/31 36/79/31 34/80/31 32/81/31 30/82/31 28/83/31 26/84/31 24/85/31 22/86/31 20/87/31 18/88/31 16/89/31 14/90/31 12/91/31 10/92/31 8/93/31 6/94/31
f 61/62/32 62/61/32 64/95/32 63/96/32
f 63/96/33 64/95/33 2/97/33 1/98/33
f 1/99/34 3/100/34 5/101/34 7/102/34 9/103/34 11/104/34 13/105/34 15/106/34 17/107/34 19/108/34 21/109/34 23/110/34 25/111/34 27/112/34 29/113/34 31/114/34 33/115/34 35/116/34 37/117/34 39/118/34 41/119/34 43/120/34 45/121/34 47/122/34 49/123/34 51/124/34 53/125/34 55/126/34 57/127/34 59/128/34 61/129/34 63/130/34
f 65/1/1 66/2/1 68/3/1 67/4/1
f 67/4/2 68/3/2 70/5/2 69/6/2
f 69/6/3 70/5/3 72/7/3 71/8/3
f 71/8/4 72/7/4 74/9/4 73/10/4
f 73/10/5 74/9/5 76/11/5 75/12/5
f 75/12/6 76/11/6 78/13/6 77/14/6
f 77/14/7 78/13/7 80/15/7 79/16/7
f 79/16/8 80/15/8 82/17/8 81/18/8
f 81/18/9 82/17/9 84/19/9 83/20/9
f 83/20/10 84/19/10 86/21/10 85/22/10
f 85/22/11 86/21/11 88/23/11 87/24/11
f 87/24/12 88/23/12 90/25/12 89/26/12
f 89/26/13 90/25/13 92/27/13 91/28/13
f 91/28/14 92/27/14 94/29/14 93/30/14
f 93/30/15 94/29/15 96/31/15 95/32/15
f 95/32/16 96/31/16 98/33/16 97/34/16
f 97/34/17 98/33/17 100/35/17 99/36/17
f 99/36/18 100/35/18 102/37/18 101/38/18
f 101/38/19 102/37/19 104/39/19 103/40/19
f 103/40/20 104/39/20 106/41/20 105/42/20
f 105/42/21 106/41/21 108/43/21 107/44/21
f 107/44/22 108/43/22 110/45/22 109/46/22
f 109/46/23 110/45/23 112/47/23 111/48/23
f 111/48/24 112/47/24 114/49/24 113/50/24
f 113/50/25 114/49/25 116/51/25 115/52/25
f 115/52/26 116/51/26 118/53/26 117/54/26
f 117/54/27 118/53/27 120/55/27 119/56/27
f 119/56/28 120/55/28 122/57/28 121/58/28
f 121/58/29 122/57/29 124/59/29 123/60/29
f 123/60/30 124/59/30 126/61/30 125/62/30
f 68/63/31 66/64/31 128/65/31 126/66/31 124/67/31 122/68/31 120/69/31 118/70/31 116/71/31 114/72/31 112/73/31 110/74/31 108/75/31 106/76/31 104/77/31 102/78/31 100/79/31 98/80/31 96/81/31 94/82/31 92/83/31 90/84/31 88/85/31 86/86/31 84/87/31 82/88/31 80/89/31 78/90/31 76/91/31 74/92/31 72/93/31 70/94/31
f 125/62/32 126/61/32 128/95/32 127/96/32
f 127/96/33 128/95/33 66/97/33 65/98/33
f 65/99/34 67/100/34 69/101/34 71/102/34 73/103/34 75/104/34 77/105/34 79/106/34 81/107/34 83/108/34 85/109/34 87/110/34 89/111/34 91/112/34 93/113/34 95/114/34 97/115/34 99/116/34 101/117/34 103/118/34 105/119/34 107/120/34 109/121/34 111/122/34 113/123/34 115/124/34 117/125/34 119/126/34 121/127/34 123/128/34 125/129/34 127/130/34
