# Blender 4.0.2
# www.blender.org
mtllib window.mtl
o Cube
v 0.165249 -0.037387 -0.306868
v 0.165249 1.962612 -0.306868
v 0.165249 -0.037387 -1.000000
v 0.165249 1.962612 -1.000000
v -0.165249 -0.037387 -0.306868
v -0.165249 1.962612 -0.306868
v -0.165249 -0.037387 -1.000000
v -0.165249 1.962612 -1.000000
v 0.165249 -0.037387 -0.353385
v 0.165249 0.962612 -0.306868
v 0.165249 1.962612 -0.353385
v 0.165249 0.962612 -1.000000
v -0.000000 -0.037387 -1.000000
v -0.000000 1.962612 -1.000000
v -0.165249 0.962612 -1.000000
v -0.165249 -0.037387 -0.353385
v -0.165249 1.962612 -0.353385
v -0.165249 0.962612 -0.306868
v -0.000000 -0.037387 -0.306868
v -0.000000 1.962612 -0.306868
v -0.000000 1.962612 -0.353385
v -0.000000 -0.037387 -0.353385
v -0.000000 0.962612 -0.306868
v -0.165249 0.962612 -0.353385
v -0.000000 0.962612 -1.000000
v 0.165249 0.962612 -0.353385
v 0.165249 1.962612 -0.500000
v 0.165249 0.462613 -1.000000
v 0.082625 -0.037387 -1.000000
v -0.082625 1.962612 -1.000000
v -0.165249 0.462613 -1.000000
v -0.165249 -0.037387 -0.500000
v 0.165249 -0.037387 -0.500000
v 0.165249 1.462612 -1.000000
v -0.082625 -0.037387 -1.000000
v 0.082625 1.962612 -1.000000
v -0.165249 1.462612 -1.000000
v -0.165249 1.962612 -0.500000
v -0.000000 1.962612 -0.500000
v -0.000000 -0.037387 -0.500000
v -0.165249 0.962612 -0.500000
v -0.082625 0.962612 -1.000000
v 0.082625 0.962612 -1.000000
v -0.000000 0.462613 -1.000000
v -0.000000 1.462612 -1.000000
v 0.165249 0.962612 -0.500000
v 0.165249 0.462613 -0.500000
v 0.082625 1.462612 -1.000000
v 0.082625 0.462613 -1.000000
v -0.082625 0.462613 -1.000000
v -0.165249 1.462612 -0.500000
v -0.165249 0.462613 -0.500000
v -0.082625 -0.037387 -0.500000
v 0.082625 -0.037387 -0.500000
v 0.082625 1.962612 -0.500000
v -0.082625 1.962612 -0.500000
v -0.082625 1.462612 -1.000000
v 0.165249 1.462612 -0.500000
v 0.165249 1.962612 -2.862119
v -0.165249 1.962612 -2.862119
v -0.000000 1.962612 -2.862119
v -0.082625 1.962612 -2.862119
v 0.165249 1.462612 -2.862119
v 0.082625 1.962612 -2.862119
v -0.165249 1.462612 -2.862119
v -0.000000 1.462612 -2.862119
v 0.082625 1.462612 -2.862119
v -0.082625 1.462612 -2.862119
v 0.165249 -0.037387 -2.861889
v -0.165249 -0.037387 -2.861889
v -0.000000 -0.037387 -2.861889
v 0.165249 0.462613 -2.861889
v 0.082625 -0.037387 -2.861889
v -0.165249 0.462613 -2.861889
v -0.082625 -0.037387 -2.861889
v -0.000000 0.462613 -2.861889
v 0.082625 0.462613 -2.861889
v -0.082625 0.462613 -2.861889
v 0.165249 0.212613 -1.000000
v 0.123937 -0.037387 -1.000000
v -0.123937 1.962612 -1.000000
v -0.165249 0.212613 -1.000000
v -0.041312 -0.037387 -1.000000
v 0.041312 1.962612 -1.000000
v -0.082625 0.462613 -2.196665
v 0.041312 -0.037387 -1.000000
v -0.041312 1.962612 -1.000000
v 0.165249 1.712612 -1.000000
v -0.123937 -0.037387 -1.000000
v 0.123937 1.962612 -1.000000
v -0.165249 1.712612 -1.000000
v -0.000000 1.962612 -2.190018
v 0.041312 1.462612 -1.000000
v 0.123937 1.462612 -1.000000
v -0.000000 1.462612 -2.190018
v 0.041312 0.462613 -1.000000
v 0.123937 0.462613 -1.000000
v -0.000000 -0.037387 -2.196665
v -0.123937 0.462613 -1.000000
v -0.041312 0.462613 -1.000000
v 0.082625 -0.037387 -2.196665
v -0.123937 1.462612 -1.000000
v -0.041312 1.462612 -1.000000
v 0.082625 1.462612 -2.190018
v -0.123937 1.962612 -2.862119
v 0.041312 1.962612 -2.862119
v -0.041312 1.962612 -2.862119
v 0.165249 1.712612 -2.862119
v 0.123937 1.962612 -2.862119
v -0.165249 1.712612 -2.862119
v -0.000000 1.712612 -2.862119
v 0.041312 1.462612 -2.862119
v 0.123937 1.462612 -2.862119
v 0.082625 1.712612 -2.862119
v -0.123937 1.462612 -2.862119
v -0.041312 1.462612 -2.862119
v -0.082625 1.712612 -2.862119
v 0.082625 1.962612 -2.190018
v 0.165249 1.462612 -2.190018
v -0.082625 1.462612 -2.190018
v -0.165249 1.462612 -2.190018
v 0.165249 1.962612 -2.190018
v -0.165249 1.962612 -2.190018
v -0.082625 1.962612 -2.190018
v 0.165249 0.212613 -2.861889
v 0.123937 -0.037387 -2.861889
v -0.165249 0.212613 -2.861889
v -0.041312 -0.037387 -2.861889
v -0.000000 0.212613 -2.861889
v 0.041312 -0.037387 -2.861889
v -0.123937 -0.037387 -2.861889
v 0.041312 0.462613 -2.861889
v 0.123937 0.462613 -2.861889
v 0.082625 0.212613 -2.861889
v -0.123937 0.462613 -2.861889
v -0.041312 0.462613 -2.861889
v -0.082625 0.212613 -2.861889
v -0.000000 0.462613 -2.196665
v -0.082625 -0.037387 -2.196665
v -0.165249 -0.037387 -2.196665
v -0.165249 0.462613 -2.196665
v 0.165249 0.462613 -2.196665
v 0.165249 -0.037387 -2.196665
v 0.082625 0.462613 -2.196665
v 0.123937 0.462613 -2.196665
v 0.123937 -0.037387 -2.196665
v -0.123937 0.462613 -2.196665
v 0.041312 0.462613 -2.196665
v 0.165249 0.212613 -2.196665
v -0.123937 -0.037387 -2.196665
v -0.041312 0.212613 -2.861889
v -0.123937 0.212613 -2.861889
v 0.123937 0.212613 -2.861889
v 0.041312 0.212613 -2.861889
v -0.041312 1.962612 -2.190018
v 0.165249 1.712612 -2.190018
v -0.123937 1.962612 -2.190018
v -0.165249 1.712612 -2.190018
v -0.041312 1.462612 -2.190018
v 0.123937 1.962612 -2.190018
v -0.041312 1.712612 -2.862119
v 0.123937 1.712612 -2.862119
v 0.041312 1.712612 -2.862119
v -0.123937 1.712612 -2.862119
v 0.041312 1.462612 -2.190018
v 0.041312 -0.037387 -2.196665
v -0.041312 0.462613 -2.196665
v -0.041312 -0.037387 -2.196665
v -0.165249 0.212613 -2.196665
v 0.041312 1.962612 -2.190018
v 0.123937 1.462612 -2.190018
v -0.123937 1.462612 -2.190018
v 0.165249 0.460010 -2.862119
v -0.165249 0.460010 -2.862119
v -0.000000 0.460010 -2.862119
v 0.082625 0.460010 -2.862119
v -0.082625 0.460010 -2.862119
v -0.000000 0.460010 -2.190018
v 0.082625 0.460010 -2.190018
v 0.041312 0.460010 -2.862119
v 0.123937 0.460010 -2.862119
v -0.123937 0.460010 -2.862119
v -0.041312 0.460010 -2.862119
v 0.165249 0.460010 -2.190018
v -0.082625 0.460010 -2.190018
v -0.165249 0.460010 -2.190018
v -0.041312 0.460010 -2.190018
v 0.041312 0.460010 -2.190018
v 0.123937 0.460010 -2.190018
v -0.123937 0.460010 -2.190018
vn -1.0000 -0.0000 -0.0000
vn 1.0000 -0.0000 -0.0000
vn -0.0000 -1.0000 -0.0000
vn -0.0000 1.0000 -0.0000
vn -0.0000 -0.0000 1.0000
vn -0.0000 -0.0000 -1.0000
vt 0.562500 0.187500
vt 0.625000 0.187500
vt 0.625000 0.250000
vt 0.593750 0.250000
vt 0.562500 0.250000
vt 0.562500 0.500000
vt 0.687500 0.562500
vt 0.750000 0.562500
vt 0.750000 0.625000
vt 0.187500 0.562500
vt 0.250000 0.625000
vt 0.125000 0.625000
vt 0.625000 0.125000
vt 0.625000 1.000000
vt 0.750000 0.750000
vt 0.437500 0.562500
vt 0.500000 0.625000
vt 0.375000 0.625000
vt 0.562500 0.562500
vt 0.625000 0.625000
vt 0.250000 0.562500
vt 0.375000 0.750000
vt 0.250000 0.750000
vt 0.500000 0.750000
vt 0.437500 0.437500
vt 0.500000 0.437500
vt 0.500000 0.500000
vt 0.437500 0.500000
vt 0.437500 0.468750
vt 0.437500 0.312500
vt 0.500000 0.312500
vt 0.500000 0.375000
vt 0.437500 0.375000
vt 0.437500 0.343750
vt 0.562500 0.281250
vt 0.562500 0.312500
vt 0.437500 0.187500
vt 0.500000 0.187500
vt 0.500000 0.250000
vt 0.437500 0.250000
vt 0.375000 0.187500
vt 0.375000 0.125000
vt 0.500000 0.000000
vt 0.125000 0.750000
vt 0.375000 0.875000
vt 0.500000 0.875000
vt 0.500000 0.125000
vt 0.500000 1.000000
vt 0.875000 0.750000
vt 0.812500 0.562500
vt 0.375000 1.000000
vt 0.406250 0.250000
vt 0.375000 0.250000
vt 0.625000 0.000000
vt 0.562500 0.343750
vt 0.562500 0.375000
vt 0.781250 0.500000
vt 0.750000 0.500000
vt 0.406250 0.500000
vt 0.375000 0.500000
vt 0.281250 0.500000
vt 0.250000 0.500000
vt 0.437500 0.281250
vt 0.437500 0.406250
vt 0.218750 0.500000
vt 0.187500 0.500000
vt 0.625000 0.750000
vt 0.500000 0.562500
vt 0.593750 0.500000
vt 0.625000 0.500000
vt 0.625000 0.562500
vt 0.375000 0.562500
vt 0.625000 0.875000
vt 0.125000 0.562500
vt 0.312500 0.500000
vt 0.312500 0.562500
vt 0.343750 0.500000
vt 0.125000 0.500000
vt 0.156250 0.500000
vt 0.812500 0.500000
vt 0.843750 0.500000
vt 0.875000 0.500000
vt 0.875000 0.562500
vt 0.656250 0.500000
vt 0.687500 0.500000
vt 0.718750 0.500000
vt 0.875000 0.625000
vt 0.562500 0.437500
vt 0.562500 0.468750
vt 0.562500 0.406250
vt 0.593750 0.468750
vt 0.625000 0.468750
vt 0.593750 0.343750
vt 0.625000 0.343750
vt 0.625000 0.375000
vt 0.593750 0.375000
vt 0.593750 0.281250
vt 0.625000 0.281250
vt 0.625000 0.312500
vt 0.593750 0.312500
vt 0.593750 0.406250
vt 0.625000 0.406250
vt 0.625000 0.437500
vt 0.593750 0.437500
vt 0.406250 0.343750
vt 0.406250 0.375000
vt 0.406250 0.281250
vt 0.406250 0.312500
vt 0.406250 0.468750
vt 0.406250 0.406250
vt 0.406250 0.437500
vt 0.375000 0.406250
vt 0.375000 0.437500
vt 0.375000 0.375000
vt 0.375000 0.468750
vt 0.375000 0.281250
vt 0.375000 0.312500
vt 0.375000 0.343750
vt 0.375000 0.000000
s 0
usemtl Material.001
f 58/1/1 27/2/1 4/3/1 88/4/1 34/5/1
f 65/6/2 121/6/2 186/6/2 174/6/2
f 56/7/3 39/8/3 21/9/3
f 54/10/4 22/11/4 9/12/4
f 21/9/3 11/13/3 2/14/3 20/15/3
f 52/16/2 24/17/2 16/18/2
f 51/19/2 17/20/2 24/17/2
f 54/10/4 40/21/4 22/11/4
f 5/22/4 19/23/4 22/11/4 16/18/4
f 18/24/2 5/22/2 16/18/2 24/17/2
f 50/25/5 42/26/5 15/27/5 31/28/5 99/29/5
f 49/30/5 43/31/5 25/32/5 44/33/5 96/34/5
f 113/35/5 67/36/5 176/36/5 181/35/5
f 47/37/1 46/38/1 12/39/1 28/40/1
f 33/41/1 9/42/1 47/37/1
f 10/43/6 1/44/6 19/45/6 23/46/6
f 23/46/6 19/23/6 5/22/6 18/24/6
f 26/47/1 10/48/1 2/49/1 11/13/1
f 39/8/3 55/50/3 21/9/3
f 9/12/1 1/51/1 10/43/1 26/47/1
f 11/13/1 27/2/1 58/1/1
f 33/41/1 47/37/1 28/40/1 79/52/1 3/53/1
f 46/38/1 26/47/1 58/1/1
f 2/54/6 10/48/6 23/46/6 20/15/6
f 43/31/5 48/36/5 93/55/5 45/56/5 25/32/5
f 12/39/5 34/5/5 94/35/5 48/36/5 43/31/5
f 170/57/3 92/58/3 61/58/3 106/57/3
f 169/59/2 140/60/2 70/60/2 127/59/2
f 168/61/4 98/62/4 71/62/4 128/61/4
f 28/40/5 12/39/5 43/31/5 49/30/5 97/63/5
f 167/64/3 85/25/3 78/25/3 136/64/3
f 166/65/4 101/66/4 73/66/4 130/65/4
f 44/33/5 25/32/5 42/26/5 50/25/5 100/64/5
f 18/24/2 24/17/2 17/20/2 6/67/2
f 15/27/2 37/6/2 51/19/2 41/68/2
f 37/6/2 91/69/2 8/70/2 38/71/2 51/19/2
f 7/60/2 82/59/2 31/28/2 52/16/2 32/72/2
f 31/28/2 15/27/2 41/68/2 52/16/2
f 52/16/2 41/68/2 24/17/2
f 56/7/3 21/9/3 17/20/3
f 23/46/6 18/24/6 6/67/6 20/73/6
f 33/74/4 54/10/4 9/12/4
f 32/72/2 52/16/2 16/18/2
f 41/68/2 51/19/2 24/17/2
f 13/62/4 83/61/4 35/75/4 53/76/4 40/21/4
f 35/75/4 89/77/4 7/60/4 32/72/4 53/76/4
f 3/78/4 80/79/4 29/66/4 54/10/4 33/74/4
f 29/66/4 86/65/4 13/62/4 40/21/4 54/10/4
f 14/58/3 84/57/3 36/80/3 55/50/3 39/8/3
f 36/80/3 90/81/3 4/82/3 27/83/3 55/50/3
f 8/70/3 81/84/3 30/85/3 56/7/3 38/71/3
f 30/85/3 87/86/3 14/58/3 39/8/3 56/7/3
f 21/9/3 20/73/3 6/67/3 17/20/3
f 26/47/1 47/37/1 9/42/1
f 55/50/3 27/83/3 11/87/3
f 38/71/3 56/7/3 17/20/3
f 53/76/4 32/72/4 16/18/4
f 51/19/2 38/71/2 17/20/2
f 42/26/5 57/88/5 102/89/5 37/6/5 15/27/5
f 25/32/5 45/56/5 103/90/5 57/88/5 42/26/5
f 63/5/5 113/35/5 181/35/5 173/5/5
f 46/38/1 58/1/1 34/5/1 12/39/1
f 53/76/4 16/18/4 22/11/4
f 11/13/1 58/1/1 26/47/1
f 164/91/5 105/92/5 60/70/5 110/69/5
f 163/93/5 106/94/5 61/95/5 111/96/5
f 162/97/5 109/98/5 64/99/5 114/100/5
f 161/101/5 107/102/5 62/103/5 117/104/5
f 160/81/3 118/80/3 64/80/3 109/81/3
f 112/55/5 66/56/5 175/56/5 180/55/5
f 158/69/2 121/6/2 65/6/2 110/69/2
f 157/84/3 123/70/3 60/70/3 105/84/3
f 156/4/1 122/3/1 59/3/1 108/4/1
f 155/86/3 124/85/3 62/85/3 107/86/3
f 154/105/5 132/34/5 76/33/5 129/106/5
f 153/107/5 133/63/5 77/30/5 134/108/5
f 152/109/5 135/29/5 74/28/5 127/59/5
f 151/110/5 136/64/5 78/25/5 137/111/5
f 150/77/4 139/75/4 75/75/4 131/77/4
f 149/52/1 142/40/1 72/40/1 125/52/1
f 148/34/3 138/33/3 76/33/3 132/34/3
f 147/29/3 141/28/3 74/28/3 135/29/3
f 146/79/4 143/78/4 69/78/4 126/79/4
f 145/63/3 144/30/3 77/30/3 133/63/3
f 142/40/3 145/63/3 133/63/3 72/40/3
f 28/40/3 97/63/3 145/63/3 142/40/3
f 97/63/3 49/30/3 144/30/3 145/63/3
f 101/66/4 146/79/4 126/79/4 73/66/4
f 29/66/4 80/79/4 146/79/4 101/66/4
f 80/79/4 3/78/4 143/78/4 146/79/4
f 85/25/3 147/29/3 135/29/3 78/25/3
f 50/25/3 99/29/3 147/29/3 85/25/3
f 99/29/3 31/28/3 141/28/3 147/29/3
f 144/30/3 148/34/3 132/34/3 77/30/3
f 49/30/3 96/34/3 148/34/3 144/30/3
f 96/34/3 44/33/3 138/33/3 148/34/3
f 143/53/1 149/52/1 125/52/1 69/53/1
f 3/53/1 79/52/1 149/52/1 143/53/1
f 79/52/1 28/40/1 142/40/1 149/52/1
f 140/60/4 150/77/4 131/77/4 70/60/4
f 7/60/4 89/77/4 150/77/4 140/60/4
f 89/77/4 35/75/4 139/75/4 150/77/4
f 128/112/5 151/110/5 137/111/5 75/113/5
f 71/114/5 129/106/5 151/110/5 128/112/5
f 129/106/5 76/33/5 136/64/5 151/110/5
f 131/115/5 152/109/5 127/59/5 70/60/5
f 75/113/5 137/111/5 152/109/5 131/115/5
f 137/111/5 78/25/5 135/29/5 152/109/5
f 126/116/5 153/107/5 134/108/5 73/117/5
f 69/53/5 125/52/5 153/107/5 126/116/5
f 125/52/5 72/40/5 133/63/5 153/107/5
f 130/118/5 154/105/5 129/106/5 71/114/5
f 73/117/5 134/108/5 154/105/5 130/118/5
f 134/108/5 77/30/5 132/34/5 154/105/5
f 92/58/3 155/86/3 107/86/3 61/58/3
f 14/58/3 87/86/3 155/86/3 92/58/3
f 87/86/3 30/85/3 124/85/3 155/86/3
f 119/5/1 156/4/1 108/4/1 63/5/1
f 34/5/1 88/4/1 156/4/1 119/5/1
f 88/4/1 4/3/1 122/3/1 156/4/1
f 124/85/3 157/84/3 105/84/3 62/85/3
f 30/85/3 81/84/3 157/84/3 124/85/3
f 81/84/3 8/70/3 123/70/3 157/84/3
f 123/70/2 158/69/2 110/69/2 60/70/2
f 8/70/2 91/69/2 158/69/2 123/70/2
f 91/69/2 37/6/2 121/6/2 158/69/2
f 119/5/1 63/5/1 173/5/1 184/5/1
f 57/88/4 103/90/4 159/90/4 120/88/4
f 103/90/4 45/56/4 95/56/4 159/90/4
f 122/82/3 160/81/3 109/81/3 59/82/3
f 4/82/3 90/81/3 160/81/3 122/82/3
f 90/81/3 36/80/3 118/80/3 160/81/3
f 116/90/5 161/101/5 117/104/5 68/88/5
f 66/56/5 111/96/5 161/101/5 116/90/5
f 111/96/5 61/95/5 107/102/5 161/101/5
f 113/35/5 162/97/5 114/100/5 67/36/5
f 63/5/5 108/4/5 162/97/5 113/35/5
f 108/4/5 59/3/5 109/98/5 162/97/5
f 112/55/5 163/93/5 111/96/5 66/56/5
f 67/36/5 114/100/5 163/93/5 112/55/5
f 114/100/5 64/99/5 106/94/5 163/93/5
f 115/89/5 164/91/5 110/69/5 65/6/5
f 68/88/5 117/104/5 164/91/5 115/89/5
f 117/104/5 62/103/5 105/92/5 164/91/5
f 67/36/5 112/55/5 180/55/5 176/36/5
f 45/56/4 93/55/4 165/55/4 95/56/4
f 93/55/4 48/36/4 104/36/4 165/55/4
f 98/62/4 166/65/4 130/65/4 71/62/4
f 13/62/4 86/65/4 166/65/4 98/62/4
f 86/65/4 29/66/4 101/66/4 166/65/4
f 138/33/3 167/64/3 136/64/3 76/33/3
f 44/33/3 100/64/3 167/64/3 138/33/3
f 100/64/3 50/25/3 85/25/3 167/64/3
f 139/75/4 168/61/4 128/61/4 75/75/4
f 35/75/4 83/61/4 168/61/4 139/75/4
f 83/61/4 13/62/4 98/62/4 168/61/4
f 141/28/2 169/59/2 127/59/2 74/28/2
f 31/28/2 82/59/2 169/59/2 141/28/2
f 82/59/2 7/60/2 140/60/2 169/59/2
f 118/80/3 170/57/3 106/57/3 64/80/3
f 36/80/3 84/57/3 170/57/3 118/80/3
f 84/57/3 14/58/3 92/58/3 170/57/3
f 171/35/6 119/5/6 184/5/6 189/35/6
f 48/36/4 94/35/4 171/35/4 104/36/4
f 94/35/4 34/5/4 119/5/4 171/35/4
f 104/36/6 171/35/6 189/35/6 179/36/6
f 37/6/4 102/89/4 172/89/4 121/6/4
f 102/89/4 57/88/4 120/88/4 172/89/4
f 190/89/4 185/88/4 177/88/4 182/89/4
f 189/35/4 184/5/4 173/5/4 181/35/4
f 188/55/4 179/36/4 176/36/4 180/55/4
f 187/90/4 178/56/4 175/56/4 183/90/4
f 185/88/4 187/90/4 183/90/4 177/88/4
f 178/56/4 188/55/4 180/55/4 175/56/4
f 179/36/4 189/35/4 181/35/4 176/36/4
f 186/6/4 190/89/4 182/89/4 174/6/4
f 120/88/6 159/90/6 187/90/6 185/88/6
f 121/6/6 172/89/6 190/89/6 186/6/6
f 68/88/5 115/89/5 182/89/5 177/88/5
f 159/90/6 95/56/6 178/56/6 187/90/6
f 172/89/6 120/88/6 185/88/6 190/89/6
f 115/89/5 65/6/5 174/6/5 182/89/5
f 66/56/5 116/90/5 183/90/5 175/56/5
f 95/56/6 165/55/6 188/55/6 178/56/6
f 116/90/5 68/88/5 177/88/5 183/90/5
f 165/55/6 104/36/6 179/36/6 188/55/6
f 40/21/4 53/76/4 22/11/4
f 22/11/4 19/45/4 1/119/4 9/12/4
f 26/47/1 46/38/1 47/37/1
f 55/50/3 11/87/3 21/9/3
